<mxfile host="Electron" modified="2024-09-25T13:28:13.706Z" agent="Mozilla/5.0 (Windows NT 10.0; Win64; x64) AppleWebKit/537.36 (KHTML, like Gecko) draw.io/23.0.2 Chrome/120.0.6099.109 Electron/28.1.0 Safari/537.36" etag="ikPeKE1vWOsaED1b6VzY" version="23.0.2" type="device">
  <diagram name="PÃ¡gina-1" id="WYykYUVFd-u6H1-NrjC2">
    <mxGraphModel dx="444" dy="2647" grid="1" gridSize="10" guides="1" tooltips="1" connect="1" arrows="1" fold="1" page="1" pageScale="1" pageWidth="827" pageHeight="1169" math="0" shadow="0">
      <root>
        <mxCell id="0" />
        <mxCell id="1" parent="0" />
        <mxCell id="v8uKJxZmIVCEr7YA-XvJ-7" style="rounded=0;orthogonalLoop=1;jettySize=auto;html=1;endArrow=none;endFill=0;entryX=0.5;entryY=1;entryDx=0;entryDy=0;exitX=0;exitY=0;exitDx=50;exitDy=0;exitPerimeter=0;" edge="1" parent="1" source="v8uKJxZmIVCEr7YA-XvJ-77" target="v8uKJxZmIVCEr7YA-XvJ-5">
          <mxGeometry relative="1" as="geometry">
            <mxPoint x="413" y="-960" as="sourcePoint" />
          </mxGeometry>
        </mxCell>
        <mxCell id="v8uKJxZmIVCEr7YA-XvJ-12" value="(0,n)" style="edgeLabel;html=1;align=center;verticalAlign=middle;resizable=0;points=[];fontSize=11;fontFamily=Helvetica;fontColor=default;" vertex="1" connectable="0" parent="v8uKJxZmIVCEr7YA-XvJ-7">
          <mxGeometry x="-0.2476" relative="1" as="geometry">
            <mxPoint x="21" y="-364" as="offset" />
          </mxGeometry>
        </mxCell>
        <mxCell id="v8uKJxZmIVCEr7YA-XvJ-22" style="edgeStyle=none;shape=connector;rounded=0;orthogonalLoop=1;jettySize=auto;html=1;exitX=1;exitY=0.5;exitDx=0;exitDy=0;entryX=0;entryY=0.5;entryDx=0;entryDy=0;labelBackgroundColor=default;strokeColor=default;align=center;verticalAlign=middle;fontFamily=Helvetica;fontSize=11;fontColor=default;endArrow=none;endFill=0;" edge="1" parent="1" source="v8uKJxZmIVCEr7YA-XvJ-1" target="v8uKJxZmIVCEr7YA-XvJ-19">
          <mxGeometry relative="1" as="geometry" />
        </mxCell>
        <mxCell id="v8uKJxZmIVCEr7YA-XvJ-71" style="edgeStyle=none;shape=connector;rounded=0;orthogonalLoop=1;jettySize=auto;html=1;exitX=1;exitY=0.5;exitDx=0;exitDy=0;entryX=0;entryY=0.5;entryDx=0;entryDy=0;labelBackgroundColor=default;strokeColor=default;align=center;verticalAlign=middle;fontFamily=Helvetica;fontSize=11;fontColor=default;endArrow=none;endFill=0;" edge="1" parent="1" source="v8uKJxZmIVCEr7YA-XvJ-1" target="v8uKJxZmIVCEr7YA-XvJ-59">
          <mxGeometry relative="1" as="geometry" />
        </mxCell>
        <mxCell id="v8uKJxZmIVCEr7YA-XvJ-72" style="edgeStyle=none;shape=connector;rounded=0;orthogonalLoop=1;jettySize=auto;html=1;exitX=1;exitY=0.5;exitDx=0;exitDy=0;entryX=0;entryY=0.5;entryDx=0;entryDy=0;labelBackgroundColor=default;strokeColor=default;align=center;verticalAlign=middle;fontFamily=Helvetica;fontSize=11;fontColor=default;endArrow=none;endFill=0;" edge="1" parent="1" source="v8uKJxZmIVCEr7YA-XvJ-1" target="v8uKJxZmIVCEr7YA-XvJ-60">
          <mxGeometry relative="1" as="geometry" />
        </mxCell>
        <mxCell id="v8uKJxZmIVCEr7YA-XvJ-73" style="edgeStyle=none;shape=connector;rounded=0;orthogonalLoop=1;jettySize=auto;html=1;exitX=1;exitY=0.5;exitDx=0;exitDy=0;entryX=0;entryY=0.5;entryDx=0;entryDy=0;labelBackgroundColor=default;strokeColor=default;align=center;verticalAlign=middle;fontFamily=Helvetica;fontSize=11;fontColor=default;endArrow=none;endFill=0;" edge="1" parent="1" source="v8uKJxZmIVCEr7YA-XvJ-1" target="v8uKJxZmIVCEr7YA-XvJ-61">
          <mxGeometry relative="1" as="geometry" />
        </mxCell>
        <mxCell id="v8uKJxZmIVCEr7YA-XvJ-74" style="edgeStyle=none;shape=connector;rounded=0;orthogonalLoop=1;jettySize=auto;html=1;exitX=1;exitY=0.5;exitDx=0;exitDy=0;entryX=0;entryY=0.5;entryDx=0;entryDy=0;labelBackgroundColor=default;strokeColor=default;align=center;verticalAlign=middle;fontFamily=Helvetica;fontSize=11;fontColor=default;endArrow=none;endFill=0;" edge="1" parent="1" source="v8uKJxZmIVCEr7YA-XvJ-1" target="v8uKJxZmIVCEr7YA-XvJ-69">
          <mxGeometry relative="1" as="geometry" />
        </mxCell>
        <mxCell id="v8uKJxZmIVCEr7YA-XvJ-75" style="edgeStyle=none;shape=connector;rounded=0;orthogonalLoop=1;jettySize=auto;html=1;exitX=1;exitY=0.5;exitDx=0;exitDy=0;entryX=0;entryY=0.5;entryDx=0;entryDy=0;labelBackgroundColor=default;strokeColor=default;align=center;verticalAlign=middle;fontFamily=Helvetica;fontSize=11;fontColor=default;endArrow=none;endFill=0;" edge="1" parent="1" source="v8uKJxZmIVCEr7YA-XvJ-1" target="v8uKJxZmIVCEr7YA-XvJ-70">
          <mxGeometry relative="1" as="geometry" />
        </mxCell>
        <mxCell id="v8uKJxZmIVCEr7YA-XvJ-76" style="edgeStyle=none;shape=connector;rounded=0;orthogonalLoop=1;jettySize=auto;html=1;exitX=1;exitY=0.5;exitDx=0;exitDy=0;entryX=0;entryY=0.5;entryDx=0;entryDy=0;labelBackgroundColor=default;strokeColor=default;align=center;verticalAlign=middle;fontFamily=Helvetica;fontSize=11;fontColor=default;endArrow=none;endFill=0;" edge="1" parent="1" source="v8uKJxZmIVCEr7YA-XvJ-1" target="v8uKJxZmIVCEr7YA-XvJ-68">
          <mxGeometry relative="1" as="geometry" />
        </mxCell>
        <mxCell id="v8uKJxZmIVCEr7YA-XvJ-81" style="edgeStyle=none;shape=connector;rounded=0;orthogonalLoop=1;jettySize=auto;html=1;exitX=1;exitY=0.5;exitDx=0;exitDy=0;entryX=0;entryY=0.5;entryDx=0;entryDy=0;labelBackgroundColor=default;strokeColor=default;align=center;verticalAlign=middle;fontFamily=Helvetica;fontSize=11;fontColor=default;endArrow=none;endFill=0;" edge="1" parent="1" source="v8uKJxZmIVCEr7YA-XvJ-1" target="v8uKJxZmIVCEr7YA-XvJ-58">
          <mxGeometry relative="1" as="geometry" />
        </mxCell>
        <mxCell id="v8uKJxZmIVCEr7YA-XvJ-82" style="edgeStyle=none;shape=connector;rounded=0;orthogonalLoop=1;jettySize=auto;html=1;exitX=1;exitY=0.5;exitDx=0;exitDy=0;entryX=0;entryY=0.5;entryDx=0;entryDy=0;labelBackgroundColor=default;strokeColor=default;align=center;verticalAlign=middle;fontFamily=Helvetica;fontSize=11;fontColor=default;endArrow=none;endFill=0;" edge="1" parent="1" source="v8uKJxZmIVCEr7YA-XvJ-1" target="v8uKJxZmIVCEr7YA-XvJ-62">
          <mxGeometry relative="1" as="geometry" />
        </mxCell>
        <mxCell id="v8uKJxZmIVCEr7YA-XvJ-83" style="edgeStyle=none;shape=connector;rounded=0;orthogonalLoop=1;jettySize=auto;html=1;exitX=1;exitY=0.5;exitDx=0;exitDy=0;entryX=0;entryY=0.5;entryDx=0;entryDy=0;labelBackgroundColor=default;strokeColor=default;align=center;verticalAlign=middle;fontFamily=Helvetica;fontSize=11;fontColor=default;endArrow=none;endFill=0;" edge="1" parent="1" source="v8uKJxZmIVCEr7YA-XvJ-1" target="v8uKJxZmIVCEr7YA-XvJ-63">
          <mxGeometry relative="1" as="geometry" />
        </mxCell>
        <mxCell id="v8uKJxZmIVCEr7YA-XvJ-84" style="edgeStyle=none;shape=connector;rounded=0;orthogonalLoop=1;jettySize=auto;html=1;exitX=1;exitY=0.5;exitDx=0;exitDy=0;entryX=0;entryY=0.5;entryDx=0;entryDy=0;labelBackgroundColor=default;strokeColor=default;align=center;verticalAlign=middle;fontFamily=Helvetica;fontSize=11;fontColor=default;endArrow=none;endFill=0;" edge="1" parent="1" source="v8uKJxZmIVCEr7YA-XvJ-1" target="v8uKJxZmIVCEr7YA-XvJ-64">
          <mxGeometry relative="1" as="geometry" />
        </mxCell>
        <mxCell id="v8uKJxZmIVCEr7YA-XvJ-85" style="edgeStyle=none;shape=connector;rounded=0;orthogonalLoop=1;jettySize=auto;html=1;exitX=1;exitY=0.5;exitDx=0;exitDy=0;entryX=0;entryY=0.5;entryDx=0;entryDy=0;labelBackgroundColor=default;strokeColor=default;align=center;verticalAlign=middle;fontFamily=Helvetica;fontSize=11;fontColor=default;endArrow=none;endFill=0;" edge="1" parent="1" source="v8uKJxZmIVCEr7YA-XvJ-1" target="v8uKJxZmIVCEr7YA-XvJ-65">
          <mxGeometry relative="1" as="geometry" />
        </mxCell>
        <mxCell id="v8uKJxZmIVCEr7YA-XvJ-86" style="edgeStyle=none;shape=connector;rounded=0;orthogonalLoop=1;jettySize=auto;html=1;exitX=1;exitY=0.5;exitDx=0;exitDy=0;entryX=0;entryY=0.5;entryDx=0;entryDy=0;labelBackgroundColor=default;strokeColor=default;align=center;verticalAlign=middle;fontFamily=Helvetica;fontSize=11;fontColor=default;endArrow=none;endFill=0;" edge="1" parent="1" source="v8uKJxZmIVCEr7YA-XvJ-1" target="v8uKJxZmIVCEr7YA-XvJ-66">
          <mxGeometry relative="1" as="geometry" />
        </mxCell>
        <mxCell id="v8uKJxZmIVCEr7YA-XvJ-87" style="edgeStyle=none;shape=connector;rounded=0;orthogonalLoop=1;jettySize=auto;html=1;exitX=1;exitY=0.5;exitDx=0;exitDy=0;entryX=0;entryY=0.5;entryDx=0;entryDy=0;labelBackgroundColor=default;strokeColor=default;align=center;verticalAlign=middle;fontFamily=Helvetica;fontSize=11;fontColor=default;endArrow=none;endFill=0;" edge="1" parent="1" source="v8uKJxZmIVCEr7YA-XvJ-1" target="v8uKJxZmIVCEr7YA-XvJ-67">
          <mxGeometry relative="1" as="geometry" />
        </mxCell>
        <mxCell id="v8uKJxZmIVCEr7YA-XvJ-1" value="Filiado PF" style="whiteSpace=wrap;html=1;align=center;" vertex="1" parent="1">
          <mxGeometry x="443" y="-790" width="100" height="40" as="geometry" />
        </mxCell>
        <mxCell id="v8uKJxZmIVCEr7YA-XvJ-21" style="edgeStyle=none;shape=connector;rounded=0;orthogonalLoop=1;jettySize=auto;html=1;exitX=1;exitY=0.5;exitDx=0;exitDy=0;entryX=0;entryY=0.5;entryDx=0;entryDy=0;labelBackgroundColor=default;strokeColor=default;align=center;verticalAlign=middle;fontFamily=Helvetica;fontSize=11;fontColor=default;endArrow=none;endFill=0;" edge="1" parent="1" source="v8uKJxZmIVCEr7YA-XvJ-2" target="v8uKJxZmIVCEr7YA-XvJ-17">
          <mxGeometry relative="1" as="geometry" />
        </mxCell>
        <mxCell id="v8uKJxZmIVCEr7YA-XvJ-27" style="edgeStyle=none;shape=connector;rounded=0;orthogonalLoop=1;jettySize=auto;html=1;exitX=1;exitY=0.5;exitDx=0;exitDy=0;entryX=0;entryY=0.5;entryDx=0;entryDy=0;labelBackgroundColor=default;strokeColor=default;align=center;verticalAlign=middle;fontFamily=Helvetica;fontSize=11;fontColor=default;endArrow=none;endFill=0;" edge="1" parent="1" source="v8uKJxZmIVCEr7YA-XvJ-2" target="v8uKJxZmIVCEr7YA-XvJ-23">
          <mxGeometry relative="1" as="geometry" />
        </mxCell>
        <mxCell id="v8uKJxZmIVCEr7YA-XvJ-28" style="edgeStyle=none;shape=connector;rounded=0;orthogonalLoop=1;jettySize=auto;html=1;exitX=1;exitY=0.5;exitDx=0;exitDy=0;entryX=0;entryY=0.5;entryDx=0;entryDy=0;labelBackgroundColor=default;strokeColor=default;align=center;verticalAlign=middle;fontFamily=Helvetica;fontSize=11;fontColor=default;endArrow=none;endFill=0;" edge="1" parent="1" source="v8uKJxZmIVCEr7YA-XvJ-2" target="v8uKJxZmIVCEr7YA-XvJ-24">
          <mxGeometry relative="1" as="geometry" />
        </mxCell>
        <mxCell id="v8uKJxZmIVCEr7YA-XvJ-29" style="edgeStyle=none;shape=connector;rounded=0;orthogonalLoop=1;jettySize=auto;html=1;exitX=1;exitY=0.5;exitDx=0;exitDy=0;entryX=0;entryY=0.5;entryDx=0;entryDy=0;labelBackgroundColor=default;strokeColor=default;align=center;verticalAlign=middle;fontFamily=Helvetica;fontSize=11;fontColor=default;endArrow=none;endFill=0;" edge="1" parent="1" source="v8uKJxZmIVCEr7YA-XvJ-2" target="v8uKJxZmIVCEr7YA-XvJ-25">
          <mxGeometry relative="1" as="geometry" />
        </mxCell>
        <mxCell id="v8uKJxZmIVCEr7YA-XvJ-30" style="edgeStyle=none;shape=connector;rounded=0;orthogonalLoop=1;jettySize=auto;html=1;exitX=1;exitY=0.5;exitDx=0;exitDy=0;entryX=0;entryY=0.5;entryDx=0;entryDy=0;labelBackgroundColor=default;strokeColor=default;align=center;verticalAlign=middle;fontFamily=Helvetica;fontSize=11;fontColor=default;endArrow=none;endFill=0;" edge="1" parent="1" source="v8uKJxZmIVCEr7YA-XvJ-2" target="v8uKJxZmIVCEr7YA-XvJ-26">
          <mxGeometry relative="1" as="geometry" />
        </mxCell>
        <mxCell id="v8uKJxZmIVCEr7YA-XvJ-2" value="ONG" style="whiteSpace=wrap;html=1;align=center;" vertex="1" parent="1">
          <mxGeometry x="343" y="-1980" width="100" height="40" as="geometry" />
        </mxCell>
        <mxCell id="v8uKJxZmIVCEr7YA-XvJ-10" style="edgeStyle=none;shape=connector;rounded=0;orthogonalLoop=1;jettySize=auto;html=1;exitX=0.5;exitY=0;exitDx=0;exitDy=0;entryX=0.5;entryY=1;entryDx=0;entryDy=0;labelBackgroundColor=default;strokeColor=default;align=center;verticalAlign=middle;fontFamily=Helvetica;fontSize=11;fontColor=default;endArrow=none;endFill=0;" edge="1" parent="1" source="v8uKJxZmIVCEr7YA-XvJ-3" target="v8uKJxZmIVCEr7YA-XvJ-16">
          <mxGeometry relative="1" as="geometry">
            <mxPoint x="506" y="-1390" as="targetPoint" />
          </mxGeometry>
        </mxCell>
        <mxCell id="v8uKJxZmIVCEr7YA-XvJ-48" value="(0,n)" style="edgeLabel;html=1;align=center;verticalAlign=middle;resizable=0;points=[];fontSize=11;fontFamily=Helvetica;fontColor=default;" vertex="1" connectable="0" parent="v8uKJxZmIVCEr7YA-XvJ-10">
          <mxGeometry x="-0.1833" y="1" relative="1" as="geometry">
            <mxPoint x="22" y="96" as="offset" />
          </mxGeometry>
        </mxCell>
        <mxCell id="v8uKJxZmIVCEr7YA-XvJ-20" style="edgeStyle=none;shape=connector;rounded=0;orthogonalLoop=1;jettySize=auto;html=1;exitX=1;exitY=0.5;exitDx=0;exitDy=0;entryX=0;entryY=0.5;entryDx=0;entryDy=0;labelBackgroundColor=default;strokeColor=default;align=center;verticalAlign=middle;fontFamily=Helvetica;fontSize=11;fontColor=default;endArrow=none;endFill=0;" edge="1" parent="1" source="v8uKJxZmIVCEr7YA-XvJ-3" target="v8uKJxZmIVCEr7YA-XvJ-18">
          <mxGeometry relative="1" as="geometry" />
        </mxCell>
        <mxCell id="v8uKJxZmIVCEr7YA-XvJ-35" style="edgeStyle=none;shape=connector;rounded=0;orthogonalLoop=1;jettySize=auto;html=1;exitX=1;exitY=0.5;exitDx=0;exitDy=0;entryX=0;entryY=0.5;entryDx=0;entryDy=0;labelBackgroundColor=default;strokeColor=default;align=center;verticalAlign=middle;fontFamily=Helvetica;fontSize=11;fontColor=default;endArrow=none;endFill=0;" edge="1" parent="1" source="v8uKJxZmIVCEr7YA-XvJ-3" target="v8uKJxZmIVCEr7YA-XvJ-33">
          <mxGeometry relative="1" as="geometry" />
        </mxCell>
        <mxCell id="v8uKJxZmIVCEr7YA-XvJ-36" style="edgeStyle=none;shape=connector;rounded=0;orthogonalLoop=1;jettySize=auto;html=1;exitX=1;exitY=0.5;exitDx=0;exitDy=0;entryX=0;entryY=0.5;entryDx=0;entryDy=0;labelBackgroundColor=default;strokeColor=default;align=center;verticalAlign=middle;fontFamily=Helvetica;fontSize=11;fontColor=default;endArrow=none;endFill=0;" edge="1" parent="1" source="v8uKJxZmIVCEr7YA-XvJ-3" target="v8uKJxZmIVCEr7YA-XvJ-34">
          <mxGeometry relative="1" as="geometry" />
        </mxCell>
        <mxCell id="v8uKJxZmIVCEr7YA-XvJ-37" style="edgeStyle=none;shape=connector;rounded=0;orthogonalLoop=1;jettySize=auto;html=1;exitX=1;exitY=0.5;exitDx=0;exitDy=0;entryX=0;entryY=0.5;entryDx=0;entryDy=0;labelBackgroundColor=default;strokeColor=default;align=center;verticalAlign=middle;fontFamily=Helvetica;fontSize=11;fontColor=default;endArrow=none;endFill=0;" edge="1" parent="1" source="v8uKJxZmIVCEr7YA-XvJ-3" target="v8uKJxZmIVCEr7YA-XvJ-31">
          <mxGeometry relative="1" as="geometry" />
        </mxCell>
        <mxCell id="v8uKJxZmIVCEr7YA-XvJ-38" style="edgeStyle=none;shape=connector;rounded=0;orthogonalLoop=1;jettySize=auto;html=1;exitX=1;exitY=0.5;exitDx=0;exitDy=0;entryX=0;entryY=0.5;entryDx=0;entryDy=0;labelBackgroundColor=default;strokeColor=default;align=center;verticalAlign=middle;fontFamily=Helvetica;fontSize=11;fontColor=default;endArrow=none;endFill=0;" edge="1" parent="1" source="v8uKJxZmIVCEr7YA-XvJ-3" target="v8uKJxZmIVCEr7YA-XvJ-32">
          <mxGeometry relative="1" as="geometry" />
        </mxCell>
        <mxCell id="v8uKJxZmIVCEr7YA-XvJ-40" style="edgeStyle=none;shape=connector;rounded=0;orthogonalLoop=1;jettySize=auto;html=1;exitX=1;exitY=0.5;exitDx=0;exitDy=0;entryX=0;entryY=0.5;entryDx=0;entryDy=0;labelBackgroundColor=default;strokeColor=default;align=center;verticalAlign=middle;fontFamily=Helvetica;fontSize=11;fontColor=default;endArrow=none;endFill=0;" edge="1" parent="1" source="v8uKJxZmIVCEr7YA-XvJ-3" target="v8uKJxZmIVCEr7YA-XvJ-39">
          <mxGeometry relative="1" as="geometry" />
        </mxCell>
        <mxCell id="v8uKJxZmIVCEr7YA-XvJ-3" value="DoaÃ§Ã£o" style="whiteSpace=wrap;html=1;align=center;" vertex="1" parent="1">
          <mxGeometry x="343" y="-1350" width="100" height="40" as="geometry" />
        </mxCell>
        <mxCell id="v8uKJxZmIVCEr7YA-XvJ-9" style="edgeStyle=none;shape=connector;rounded=0;orthogonalLoop=1;jettySize=auto;html=1;exitX=0.5;exitY=0;exitDx=0;exitDy=0;entryX=0.5;entryY=1;entryDx=0;entryDy=0;labelBackgroundColor=default;strokeColor=default;align=center;verticalAlign=middle;fontFamily=Helvetica;fontSize=11;fontColor=default;endArrow=none;endFill=0;" edge="1" parent="1" source="v8uKJxZmIVCEr7YA-XvJ-5" target="v8uKJxZmIVCEr7YA-XvJ-3">
          <mxGeometry relative="1" as="geometry" />
        </mxCell>
        <mxCell id="v8uKJxZmIVCEr7YA-XvJ-13" value="(1,1)" style="edgeLabel;html=1;align=center;verticalAlign=middle;resizable=0;points=[];fontSize=11;fontFamily=Helvetica;fontColor=default;" vertex="1" connectable="0" parent="v8uKJxZmIVCEr7YA-XvJ-9">
          <mxGeometry x="-0.3429" y="2" relative="1" as="geometry">
            <mxPoint x="23" y="252" as="offset" />
          </mxGeometry>
        </mxCell>
        <mxCell id="v8uKJxZmIVCEr7YA-XvJ-5" value="" style="shape=rhombus;perimeter=rhombusPerimeter;whiteSpace=wrap;html=1;align=center;" vertex="1" parent="1">
          <mxGeometry x="333" y="-1150" width="120" height="60" as="geometry" />
        </mxCell>
        <mxCell id="v8uKJxZmIVCEr7YA-XvJ-43" style="edgeStyle=none;shape=connector;rounded=0;orthogonalLoop=1;jettySize=auto;html=1;exitX=0.5;exitY=0;exitDx=0;exitDy=0;entryX=0.5;entryY=1;entryDx=0;entryDy=0;labelBackgroundColor=default;strokeColor=default;align=center;verticalAlign=middle;fontFamily=Helvetica;fontSize=11;fontColor=default;endArrow=none;endFill=0;" edge="1" parent="1" source="v8uKJxZmIVCEr7YA-XvJ-16" target="v8uKJxZmIVCEr7YA-XvJ-42">
          <mxGeometry relative="1" as="geometry" />
        </mxCell>
        <mxCell id="v8uKJxZmIVCEr7YA-XvJ-49" value="(1,n)" style="edgeLabel;html=1;align=center;verticalAlign=middle;resizable=0;points=[];fontSize=11;fontFamily=Helvetica;fontColor=default;" vertex="1" connectable="0" parent="v8uKJxZmIVCEr7YA-XvJ-43">
          <mxGeometry x="0.0889" y="-2" relative="1" as="geometry">
            <mxPoint x="19" y="-40" as="offset" />
          </mxGeometry>
        </mxCell>
        <mxCell id="v8uKJxZmIVCEr7YA-XvJ-16" value="" style="shape=associativeEntity;whiteSpace=wrap;html=1;align=center;fontFamily=Helvetica;fontSize=11;fontColor=default;" vertex="1" parent="1">
          <mxGeometry x="323" y="-1510" width="140" height="60" as="geometry" />
        </mxCell>
        <mxCell id="v8uKJxZmIVCEr7YA-XvJ-17" value="ID_ONG" style="ellipse;whiteSpace=wrap;html=1;align=center;fontStyle=4;fontFamily=Helvetica;fontSize=11;fontColor=default;" vertex="1" parent="1">
          <mxGeometry x="573" y="-2080" width="100" height="40" as="geometry" />
        </mxCell>
        <mxCell id="v8uKJxZmIVCEr7YA-XvJ-18" value="ID_Doacao" style="ellipse;whiteSpace=wrap;html=1;align=center;fontStyle=4;fontFamily=Helvetica;fontSize=11;fontColor=default;" vertex="1" parent="1">
          <mxGeometry x="583" y="-1470" width="100" height="40" as="geometry" />
        </mxCell>
        <mxCell id="v8uKJxZmIVCEr7YA-XvJ-19" value="ID_Filiado" style="ellipse;whiteSpace=wrap;html=1;align=center;fontStyle=4;fontFamily=Helvetica;fontSize=11;fontColor=default;" vertex="1" parent="1">
          <mxGeometry x="703" y="-1030" width="100" height="40" as="geometry" />
        </mxCell>
        <mxCell id="v8uKJxZmIVCEr7YA-XvJ-23" value="NomeDaONG" style="ellipse;whiteSpace=wrap;html=1;align=center;fontFamily=Helvetica;fontSize=11;fontColor=default;" vertex="1" parent="1">
          <mxGeometry x="573" y="-2030" width="100" height="40" as="geometry" />
        </mxCell>
        <mxCell id="v8uKJxZmIVCEr7YA-XvJ-24" value="emailONG" style="ellipse;whiteSpace=wrap;html=1;align=center;fontFamily=Helvetica;fontSize=11;fontColor=default;" vertex="1" parent="1">
          <mxGeometry x="573" y="-1980" width="100" height="40" as="geometry" />
        </mxCell>
        <mxCell id="v8uKJxZmIVCEr7YA-XvJ-25" value="telefoneONG" style="ellipse;whiteSpace=wrap;html=1;align=center;fontFamily=Helvetica;fontSize=11;fontColor=default;" vertex="1" parent="1">
          <mxGeometry x="573" y="-1930" width="100" height="40" as="geometry" />
        </mxCell>
        <mxCell id="v8uKJxZmIVCEr7YA-XvJ-26" value="enderecoONG" style="ellipse;whiteSpace=wrap;html=1;align=center;fontFamily=Helvetica;fontSize=11;fontColor=default;" vertex="1" parent="1">
          <mxGeometry x="573" y="-1880" width="100" height="40" as="geometry" />
        </mxCell>
        <mxCell id="v8uKJxZmIVCEr7YA-XvJ-31" value="HoraDaDoacao" style="ellipse;whiteSpace=wrap;html=1;align=center;fontFamily=Helvetica;fontSize=11;fontColor=default;" vertex="1" parent="1">
          <mxGeometry x="583" y="-1315" width="100" height="40" as="geometry" />
        </mxCell>
        <mxCell id="v8uKJxZmIVCEr7YA-XvJ-32" value="DataDaDoacao" style="ellipse;whiteSpace=wrap;html=1;align=center;fontFamily=Helvetica;fontSize=11;fontColor=default;" vertex="1" parent="1">
          <mxGeometry x="583" y="-1265" width="100" height="40" as="geometry" />
        </mxCell>
        <mxCell id="v8uKJxZmIVCEr7YA-XvJ-33" value="ValorDaDoacao" style="ellipse;whiteSpace=wrap;html=1;align=center;fontFamily=Helvetica;fontSize=11;fontColor=default;" vertex="1" parent="1">
          <mxGeometry x="583" y="-1420" width="100" height="40" as="geometry" />
        </mxCell>
        <mxCell id="v8uKJxZmIVCEr7YA-XvJ-34" value="&lt;font style=&quot;font-size: 6px;&quot;&gt;FormaDePagamentoDaDoacao&lt;/font&gt;" style="ellipse;whiteSpace=wrap;html=1;align=center;fontFamily=Helvetica;fontSize=11;fontColor=default;" vertex="1" parent="1">
          <mxGeometry x="583" y="-1370" width="100" height="40" as="geometry" />
        </mxCell>
        <mxCell id="v8uKJxZmIVCEr7YA-XvJ-39" value="TipoDaDoacao" style="ellipse;whiteSpace=wrap;html=1;align=center;fontFamily=Helvetica;fontSize=11;fontColor=default;" vertex="1" parent="1">
          <mxGeometry x="583" y="-1210" width="100" height="40" as="geometry" />
        </mxCell>
        <mxCell id="v8uKJxZmIVCEr7YA-XvJ-46" style="edgeStyle=none;shape=connector;rounded=0;orthogonalLoop=1;jettySize=auto;html=1;exitX=0.5;exitY=0;exitDx=0;exitDy=0;labelBackgroundColor=default;strokeColor=default;align=center;verticalAlign=middle;fontFamily=Helvetica;fontSize=11;fontColor=default;endArrow=none;endFill=0;entryX=0.5;entryY=1;entryDx=0;entryDy=0;" edge="1" parent="1" source="v8uKJxZmIVCEr7YA-XvJ-42" target="v8uKJxZmIVCEr7YA-XvJ-52">
          <mxGeometry relative="1" as="geometry">
            <mxPoint x="303" y="-1710" as="targetPoint" />
          </mxGeometry>
        </mxCell>
        <mxCell id="v8uKJxZmIVCEr7YA-XvJ-50" value="(1,n)" style="edgeLabel;html=1;align=center;verticalAlign=middle;resizable=0;points=[];fontSize=11;fontFamily=Helvetica;fontColor=default;" vertex="1" connectable="0" parent="v8uKJxZmIVCEr7YA-XvJ-46">
          <mxGeometry x="-0.0255" y="-1" relative="1" as="geometry">
            <mxPoint x="20" y="43" as="offset" />
          </mxGeometry>
        </mxCell>
        <mxCell id="v8uKJxZmIVCEr7YA-XvJ-55" style="edgeStyle=none;shape=connector;rounded=0;orthogonalLoop=1;jettySize=auto;html=1;exitX=1;exitY=0.5;exitDx=0;exitDy=0;entryX=0;entryY=0.5;entryDx=0;entryDy=0;labelBackgroundColor=default;strokeColor=default;align=center;verticalAlign=middle;fontFamily=Helvetica;fontSize=11;fontColor=default;endArrow=none;endFill=0;" edge="1" parent="1" source="v8uKJxZmIVCEr7YA-XvJ-42" target="v8uKJxZmIVCEr7YA-XvJ-57">
          <mxGeometry relative="1" as="geometry">
            <mxPoint x="573" y="-1610" as="targetPoint" />
          </mxGeometry>
        </mxCell>
        <mxCell id="v8uKJxZmIVCEr7YA-XvJ-56" style="edgeStyle=none;shape=connector;rounded=0;orthogonalLoop=1;jettySize=auto;html=1;exitX=1;exitY=0.5;exitDx=0;exitDy=0;entryX=0;entryY=0.5;entryDx=0;entryDy=0;labelBackgroundColor=default;strokeColor=default;align=center;verticalAlign=middle;fontFamily=Helvetica;fontSize=11;fontColor=default;endArrow=none;endFill=0;" edge="1" parent="1" source="v8uKJxZmIVCEr7YA-XvJ-42" target="v8uKJxZmIVCEr7YA-XvJ-53">
          <mxGeometry relative="1" as="geometry" />
        </mxCell>
        <mxCell id="v8uKJxZmIVCEr7YA-XvJ-42" value="Causa" style="whiteSpace=wrap;html=1;align=center;" vertex="1" parent="1">
          <mxGeometry x="343" y="-1660" width="100" height="40" as="geometry" />
        </mxCell>
        <mxCell id="v8uKJxZmIVCEr7YA-XvJ-47" style="edgeStyle=none;shape=connector;rounded=0;orthogonalLoop=1;jettySize=auto;html=1;entryX=0.5;entryY=1;entryDx=0;entryDy=0;labelBackgroundColor=default;strokeColor=default;align=center;verticalAlign=middle;fontFamily=Helvetica;fontSize=11;fontColor=default;endArrow=none;endFill=0;exitX=0.5;exitY=0;exitDx=0;exitDy=0;" edge="1" parent="1" source="v8uKJxZmIVCEr7YA-XvJ-52" target="v8uKJxZmIVCEr7YA-XvJ-2">
          <mxGeometry relative="1" as="geometry">
            <mxPoint x="273" y="-1860" as="sourcePoint" />
          </mxGeometry>
        </mxCell>
        <mxCell id="v8uKJxZmIVCEr7YA-XvJ-51" value="(0,n)" style="edgeLabel;html=1;align=center;verticalAlign=middle;resizable=0;points=[];fontSize=11;fontFamily=Helvetica;fontColor=default;" vertex="1" connectable="0" parent="v8uKJxZmIVCEr7YA-XvJ-47">
          <mxGeometry x="0.3868" y="1" relative="1" as="geometry">
            <mxPoint x="22" y="-24" as="offset" />
          </mxGeometry>
        </mxCell>
        <mxCell id="v8uKJxZmIVCEr7YA-XvJ-52" value="" style="shape=associativeEntity;whiteSpace=wrap;html=1;align=center;fontFamily=Helvetica;fontSize=11;fontColor=default;" vertex="1" parent="1">
          <mxGeometry x="323" y="-1830" width="140" height="60" as="geometry" />
        </mxCell>
        <mxCell id="v8uKJxZmIVCEr7YA-XvJ-53" value="ID_Causa" style="ellipse;whiteSpace=wrap;html=1;align=center;fontStyle=4;fontFamily=Helvetica;fontSize=11;fontColor=default;" vertex="1" parent="1">
          <mxGeometry x="573" y="-1690" width="100" height="40" as="geometry" />
        </mxCell>
        <mxCell id="v8uKJxZmIVCEr7YA-XvJ-57" value="NomeDaCausa" style="ellipse;whiteSpace=wrap;html=1;align=center;fontFamily=Helvetica;fontSize=11;fontColor=default;" vertex="1" parent="1">
          <mxGeometry x="573" y="-1630" width="100" height="40" as="geometry" />
        </mxCell>
        <mxCell id="v8uKJxZmIVCEr7YA-XvJ-58" value="NomeDoFiliado" style="ellipse;whiteSpace=wrap;html=1;align=center;fontFamily=Helvetica;fontSize=11;fontColor=default;" vertex="1" parent="1">
          <mxGeometry x="703" y="-980" width="100" height="40" as="geometry" />
        </mxCell>
        <mxCell id="v8uKJxZmIVCEr7YA-XvJ-59" value="SobrenomeDoFiliado" style="ellipse;whiteSpace=wrap;html=1;align=center;fontFamily=Helvetica;fontSize=9;fontColor=default;" vertex="1" parent="1">
          <mxGeometry x="703" y="-930" width="100" height="40" as="geometry" />
        </mxCell>
        <mxCell id="v8uKJxZmIVCEr7YA-XvJ-60" value="RGdoFiliado" style="ellipse;whiteSpace=wrap;html=1;align=center;fontFamily=Helvetica;fontSize=11;fontColor=default;" vertex="1" parent="1">
          <mxGeometry x="703" y="-880" width="100" height="40" as="geometry" />
        </mxCell>
        <mxCell id="v8uKJxZmIVCEr7YA-XvJ-61" value="CPFdoFiiado" style="ellipse;whiteSpace=wrap;html=1;align=center;fontFamily=Helvetica;fontSize=11;fontColor=default;" vertex="1" parent="1">
          <mxGeometry x="703" y="-830" width="100" height="40" as="geometry" />
        </mxCell>
        <mxCell id="v8uKJxZmIVCEr7YA-XvJ-62" value="RuaDoFiliado" style="ellipse;whiteSpace=wrap;html=1;align=center;fontFamily=Helvetica;fontSize=11;fontColor=default;" vertex="1" parent="1">
          <mxGeometry x="703" y="-630" width="100" height="40" as="geometry" />
        </mxCell>
        <mxCell id="v8uKJxZmIVCEr7YA-XvJ-63" value="NumeroDaCasaDoFiliado" style="ellipse;whiteSpace=wrap;html=1;align=center;fontFamily=Helvetica;fontSize=8;fontColor=default;" vertex="1" parent="1">
          <mxGeometry x="703" y="-580" width="100" height="40" as="geometry" />
        </mxCell>
        <mxCell id="v8uKJxZmIVCEr7YA-XvJ-64" value="BairroDoFiliado" style="ellipse;whiteSpace=wrap;html=1;align=center;fontFamily=Helvetica;fontSize=8;fontColor=default;" vertex="1" parent="1">
          <mxGeometry x="703" y="-530" width="100" height="40" as="geometry" />
        </mxCell>
        <mxCell id="v8uKJxZmIVCEr7YA-XvJ-65" value="CidadeDoFiliado" style="ellipse;whiteSpace=wrap;html=1;align=center;fontFamily=Helvetica;fontSize=8;fontColor=default;" vertex="1" parent="1">
          <mxGeometry x="703" y="-480" width="100" height="40" as="geometry" />
        </mxCell>
        <mxCell id="v8uKJxZmIVCEr7YA-XvJ-66" value="EstadoDoFiliado" style="ellipse;whiteSpace=wrap;html=1;align=center;fontFamily=Helvetica;fontSize=8;fontColor=default;" vertex="1" parent="1">
          <mxGeometry x="703" y="-430" width="100" height="40" as="geometry" />
        </mxCell>
        <mxCell id="v8uKJxZmIVCEr7YA-XvJ-67" value="PaisDoFiliado" style="ellipse;whiteSpace=wrap;html=1;align=center;fontFamily=Helvetica;fontSize=8;fontColor=default;" vertex="1" parent="1">
          <mxGeometry x="703" y="-380" width="100" height="40" as="geometry" />
        </mxCell>
        <mxCell id="v8uKJxZmIVCEr7YA-XvJ-68" value="CEPdoFiliado" style="ellipse;whiteSpace=wrap;html=1;align=center;fontFamily=Helvetica;fontSize=11;fontColor=default;" vertex="1" parent="1">
          <mxGeometry x="703" y="-680" width="100" height="40" as="geometry" />
        </mxCell>
        <mxCell id="v8uKJxZmIVCEr7YA-XvJ-69" value="EmailDoFiliado" style="ellipse;whiteSpace=wrap;html=1;align=center;fontFamily=Helvetica;fontSize=11;fontColor=default;" vertex="1" parent="1">
          <mxGeometry x="703" y="-780" width="100" height="40" as="geometry" />
        </mxCell>
        <mxCell id="v8uKJxZmIVCEr7YA-XvJ-70" value="CelularDoFiliado" style="ellipse;whiteSpace=wrap;html=1;align=center;fontFamily=Helvetica;fontSize=11;fontColor=default;" vertex="1" parent="1">
          <mxGeometry x="703" y="-730" width="100" height="40" as="geometry" />
        </mxCell>
        <mxCell id="v8uKJxZmIVCEr7YA-XvJ-78" style="edgeStyle=none;shape=connector;rounded=0;orthogonalLoop=1;jettySize=auto;html=1;entryX=0.5;entryY=0;entryDx=0;entryDy=0;labelBackgroundColor=default;strokeColor=default;align=center;verticalAlign=middle;fontFamily=Helvetica;fontSize=11;fontColor=default;endArrow=none;endFill=0;" edge="1" parent="1" source="v8uKJxZmIVCEr7YA-XvJ-77" target="v8uKJxZmIVCEr7YA-XvJ-1">
          <mxGeometry relative="1" as="geometry" />
        </mxCell>
        <mxCell id="v8uKJxZmIVCEr7YA-XvJ-80" style="edgeStyle=none;shape=connector;rounded=0;orthogonalLoop=1;jettySize=auto;html=1;entryX=0.5;entryY=0;entryDx=0;entryDy=0;labelBackgroundColor=default;strokeColor=default;align=center;verticalAlign=middle;fontFamily=Helvetica;fontSize=11;fontColor=default;endArrow=none;endFill=0;" edge="1" parent="1" source="v8uKJxZmIVCEr7YA-XvJ-77" target="v8uKJxZmIVCEr7YA-XvJ-79">
          <mxGeometry relative="1" as="geometry" />
        </mxCell>
        <mxCell id="v8uKJxZmIVCEr7YA-XvJ-77" value="" style="verticalLabelPosition=bottom;verticalAlign=top;html=1;shape=mxgraph.basic.acute_triangle;dx=0.5;fontFamily=Helvetica;fontSize=11;fontColor=default;" vertex="1" parent="1">
          <mxGeometry x="343" y="-940" width="100" height="70" as="geometry" />
        </mxCell>
        <mxCell id="v8uKJxZmIVCEr7YA-XvJ-99" style="edgeStyle=none;shape=connector;rounded=0;orthogonalLoop=1;jettySize=auto;html=1;exitX=0;exitY=0.5;exitDx=0;exitDy=0;entryX=1;entryY=0.5;entryDx=0;entryDy=0;labelBackgroundColor=default;strokeColor=default;align=center;verticalAlign=middle;fontFamily=Helvetica;fontSize=11;fontColor=default;endArrow=none;endFill=0;" edge="1" parent="1" source="v8uKJxZmIVCEr7YA-XvJ-79" target="v8uKJxZmIVCEr7YA-XvJ-88">
          <mxGeometry relative="1" as="geometry" />
        </mxCell>
        <mxCell id="v8uKJxZmIVCEr7YA-XvJ-100" style="edgeStyle=none;shape=connector;rounded=0;orthogonalLoop=1;jettySize=auto;html=1;exitX=0;exitY=0.5;exitDx=0;exitDy=0;entryX=1;entryY=0.5;entryDx=0;entryDy=0;labelBackgroundColor=default;strokeColor=default;align=center;verticalAlign=middle;fontFamily=Helvetica;fontSize=11;fontColor=default;endArrow=none;endFill=0;" edge="1" parent="1" source="v8uKJxZmIVCEr7YA-XvJ-79" target="v8uKJxZmIVCEr7YA-XvJ-89">
          <mxGeometry relative="1" as="geometry" />
        </mxCell>
        <mxCell id="v8uKJxZmIVCEr7YA-XvJ-101" style="edgeStyle=none;shape=connector;rounded=0;orthogonalLoop=1;jettySize=auto;html=1;exitX=0;exitY=0.5;exitDx=0;exitDy=0;entryX=1;entryY=0.5;entryDx=0;entryDy=0;labelBackgroundColor=default;strokeColor=default;align=center;verticalAlign=middle;fontFamily=Helvetica;fontSize=11;fontColor=default;endArrow=none;endFill=0;" edge="1" parent="1" source="v8uKJxZmIVCEr7YA-XvJ-79" target="v8uKJxZmIVCEr7YA-XvJ-97">
          <mxGeometry relative="1" as="geometry" />
        </mxCell>
        <mxCell id="v8uKJxZmIVCEr7YA-XvJ-102" style="edgeStyle=none;shape=connector;rounded=0;orthogonalLoop=1;jettySize=auto;html=1;exitX=0;exitY=0.5;exitDx=0;exitDy=0;entryX=1;entryY=0.5;entryDx=0;entryDy=0;labelBackgroundColor=default;strokeColor=default;align=center;verticalAlign=middle;fontFamily=Helvetica;fontSize=11;fontColor=default;endArrow=none;endFill=0;" edge="1" parent="1" source="v8uKJxZmIVCEr7YA-XvJ-79" target="v8uKJxZmIVCEr7YA-XvJ-98">
          <mxGeometry relative="1" as="geometry" />
        </mxCell>
        <mxCell id="v8uKJxZmIVCEr7YA-XvJ-103" style="edgeStyle=none;shape=connector;rounded=0;orthogonalLoop=1;jettySize=auto;html=1;exitX=0;exitY=0.5;exitDx=0;exitDy=0;entryX=1;entryY=0.5;entryDx=0;entryDy=0;labelBackgroundColor=default;strokeColor=default;align=center;verticalAlign=middle;fontFamily=Helvetica;fontSize=11;fontColor=default;endArrow=none;endFill=0;" edge="1" parent="1" source="v8uKJxZmIVCEr7YA-XvJ-79" target="v8uKJxZmIVCEr7YA-XvJ-96">
          <mxGeometry relative="1" as="geometry" />
        </mxCell>
        <mxCell id="v8uKJxZmIVCEr7YA-XvJ-104" style="edgeStyle=none;shape=connector;rounded=0;orthogonalLoop=1;jettySize=auto;html=1;exitX=0;exitY=0.5;exitDx=0;exitDy=0;entryX=1;entryY=0.5;entryDx=0;entryDy=0;labelBackgroundColor=default;strokeColor=default;align=center;verticalAlign=middle;fontFamily=Helvetica;fontSize=11;fontColor=default;endArrow=none;endFill=0;" edge="1" parent="1" source="v8uKJxZmIVCEr7YA-XvJ-79" target="v8uKJxZmIVCEr7YA-XvJ-90">
          <mxGeometry relative="1" as="geometry" />
        </mxCell>
        <mxCell id="v8uKJxZmIVCEr7YA-XvJ-105" style="edgeStyle=none;shape=connector;rounded=0;orthogonalLoop=1;jettySize=auto;html=1;exitX=0;exitY=0.5;exitDx=0;exitDy=0;entryX=1;entryY=0.5;entryDx=0;entryDy=0;labelBackgroundColor=default;strokeColor=default;align=center;verticalAlign=middle;fontFamily=Helvetica;fontSize=11;fontColor=default;endArrow=none;endFill=0;" edge="1" parent="1" source="v8uKJxZmIVCEr7YA-XvJ-79" target="v8uKJxZmIVCEr7YA-XvJ-91">
          <mxGeometry relative="1" as="geometry" />
        </mxCell>
        <mxCell id="v8uKJxZmIVCEr7YA-XvJ-106" style="edgeStyle=none;shape=connector;rounded=0;orthogonalLoop=1;jettySize=auto;html=1;exitX=0;exitY=0.5;exitDx=0;exitDy=0;entryX=1;entryY=0.5;entryDx=0;entryDy=0;labelBackgroundColor=default;strokeColor=default;align=center;verticalAlign=middle;fontFamily=Helvetica;fontSize=11;fontColor=default;endArrow=none;endFill=0;" edge="1" parent="1" source="v8uKJxZmIVCEr7YA-XvJ-79" target="v8uKJxZmIVCEr7YA-XvJ-92">
          <mxGeometry relative="1" as="geometry" />
        </mxCell>
        <mxCell id="v8uKJxZmIVCEr7YA-XvJ-107" style="edgeStyle=none;shape=connector;rounded=0;orthogonalLoop=1;jettySize=auto;html=1;exitX=0;exitY=0.5;exitDx=0;exitDy=0;entryX=1;entryY=0.5;entryDx=0;entryDy=0;labelBackgroundColor=default;strokeColor=default;align=center;verticalAlign=middle;fontFamily=Helvetica;fontSize=11;fontColor=default;endArrow=none;endFill=0;" edge="1" parent="1" source="v8uKJxZmIVCEr7YA-XvJ-79" target="v8uKJxZmIVCEr7YA-XvJ-93">
          <mxGeometry relative="1" as="geometry" />
        </mxCell>
        <mxCell id="v8uKJxZmIVCEr7YA-XvJ-108" style="edgeStyle=none;shape=connector;rounded=0;orthogonalLoop=1;jettySize=auto;html=1;exitX=0;exitY=0.5;exitDx=0;exitDy=0;entryX=1;entryY=0.5;entryDx=0;entryDy=0;labelBackgroundColor=default;strokeColor=default;align=center;verticalAlign=middle;fontFamily=Helvetica;fontSize=11;fontColor=default;endArrow=none;endFill=0;" edge="1" parent="1" source="v8uKJxZmIVCEr7YA-XvJ-79" target="v8uKJxZmIVCEr7YA-XvJ-94">
          <mxGeometry relative="1" as="geometry" />
        </mxCell>
        <mxCell id="v8uKJxZmIVCEr7YA-XvJ-109" style="edgeStyle=none;shape=connector;rounded=0;orthogonalLoop=1;jettySize=auto;html=1;exitX=0;exitY=0.5;exitDx=0;exitDy=0;entryX=1;entryY=0.5;entryDx=0;entryDy=0;labelBackgroundColor=default;strokeColor=default;align=center;verticalAlign=middle;fontFamily=Helvetica;fontSize=11;fontColor=default;endArrow=none;endFill=0;" edge="1" parent="1" source="v8uKJxZmIVCEr7YA-XvJ-79" target="v8uKJxZmIVCEr7YA-XvJ-95">
          <mxGeometry relative="1" as="geometry" />
        </mxCell>
        <mxCell id="v8uKJxZmIVCEr7YA-XvJ-79" value="Filiado PJ" style="whiteSpace=wrap;html=1;align=center;" vertex="1" parent="1">
          <mxGeometry x="243" y="-790" width="100" height="40" as="geometry" />
        </mxCell>
        <mxCell id="v8uKJxZmIVCEr7YA-XvJ-88" value="ID_Empresa" style="ellipse;whiteSpace=wrap;html=1;align=center;fontStyle=4;fontFamily=Helvetica;fontSize=11;fontColor=default;" vertex="1" parent="1">
          <mxGeometry x="23" y="-1030" width="100" height="40" as="geometry" />
        </mxCell>
        <mxCell id="v8uKJxZmIVCEr7YA-XvJ-89" value="NomeDaEmpresa" style="ellipse;whiteSpace=wrap;html=1;align=center;fontFamily=Helvetica;fontSize=11;fontColor=default;" vertex="1" parent="1">
          <mxGeometry x="23" y="-980" width="100" height="40" as="geometry" />
        </mxCell>
        <mxCell id="v8uKJxZmIVCEr7YA-XvJ-90" value="RuaDaEmpresa" style="ellipse;whiteSpace=wrap;html=1;align=center;fontFamily=Helvetica;fontSize=11;fontColor=default;" vertex="1" parent="1">
          <mxGeometry x="23" y="-780" width="100" height="40" as="geometry" />
        </mxCell>
        <mxCell id="v8uKJxZmIVCEr7YA-XvJ-91" value="NumeroDaEmpresa" style="ellipse;whiteSpace=wrap;html=1;align=center;fontFamily=Helvetica;fontSize=8;fontColor=default;" vertex="1" parent="1">
          <mxGeometry x="23" y="-730" width="100" height="40" as="geometry" />
        </mxCell>
        <mxCell id="v8uKJxZmIVCEr7YA-XvJ-92" value="BairroDaEmpresa" style="ellipse;whiteSpace=wrap;html=1;align=center;fontFamily=Helvetica;fontSize=8;fontColor=default;" vertex="1" parent="1">
          <mxGeometry x="23" y="-680" width="100" height="40" as="geometry" />
        </mxCell>
        <mxCell id="v8uKJxZmIVCEr7YA-XvJ-93" value="CidadeDaEmpresa" style="ellipse;whiteSpace=wrap;html=1;align=center;fontFamily=Helvetica;fontSize=8;fontColor=default;" vertex="1" parent="1">
          <mxGeometry x="23" y="-630" width="100" height="40" as="geometry" />
        </mxCell>
        <mxCell id="v8uKJxZmIVCEr7YA-XvJ-94" value="EstadoDaEmpresa" style="ellipse;whiteSpace=wrap;html=1;align=center;fontFamily=Helvetica;fontSize=8;fontColor=default;" vertex="1" parent="1">
          <mxGeometry x="23" y="-580" width="100" height="40" as="geometry" />
        </mxCell>
        <mxCell id="v8uKJxZmIVCEr7YA-XvJ-95" value="PaisDaEmpresa" style="ellipse;whiteSpace=wrap;html=1;align=center;fontFamily=Helvetica;fontSize=8;fontColor=default;" vertex="1" parent="1">
          <mxGeometry x="23" y="-530" width="100" height="40" as="geometry" />
        </mxCell>
        <mxCell id="v8uKJxZmIVCEr7YA-XvJ-96" value="CEPDaEmpresa" style="ellipse;whiteSpace=wrap;html=1;align=center;fontFamily=Helvetica;fontSize=11;fontColor=default;" vertex="1" parent="1">
          <mxGeometry x="23" y="-830" width="100" height="40" as="geometry" />
        </mxCell>
        <mxCell id="v8uKJxZmIVCEr7YA-XvJ-97" value="EmailDaEmpresa" style="ellipse;whiteSpace=wrap;html=1;align=center;fontFamily=Helvetica;fontSize=11;fontColor=default;" vertex="1" parent="1">
          <mxGeometry x="23" y="-930" width="100" height="40" as="geometry" />
        </mxCell>
        <mxCell id="v8uKJxZmIVCEr7YA-XvJ-98" value="TelefoneDaEmpresa" style="ellipse;whiteSpace=wrap;html=1;align=center;fontFamily=Helvetica;fontSize=11;fontColor=default;" vertex="1" parent="1">
          <mxGeometry x="23" y="-880" width="100" height="40" as="geometry" />
        </mxCell>
      </root>
    </mxGraphModel>
  </diagram>
</mxfile>
